# xmcd
#
# Track frame offsets: 
#        150
#        14275
#        31780
#        48505
#        68753
#        81193
#        117385
#        145555
#        154700
#        170248
#        182723
#        189270
#        203708
#        215030
#        229813
#        241223
#        260195
#
# Disc length: 3821 seconds
#
# Revision: 2
# Processed by: cddbd v1.5.2PL0 Copyright (c) Steve Scherf et al.
# Submitted via: ExactAudioCopyFreeDBPlugin 1.0
#
DISCID=ed0eeb11
DTITLE=LaVern Baker - Live In Hollywood ' 91
DYEAR=1991
DGENRE=R&B
TTITLE0=Tweedlee Dee
TTITLE1=Tomorrow Night
TTITLE2=See See Rider
TTITLE3=Play It Fair
TTITLE4=Jim Dandy
TTITLE5=St. Louis Blues
TTITLE6=What A Diff'rence A Day Made
TTITLE7=The Reel's Still Runnin'
TTITLE8=Sugar Daddy Blues (From A Rage In Harlem)
TTITLE9=Slow Rollin' Mama (From Dick Tracy)
TTITLE10=He's A Real Gone Guy
TTITLE11=That's My Desire
TTITLE12=Tennessee Waltz
TTITLE13=I Cried A Tear
TTITLE14=Bumble Bee
TTITLE15=Shake A Hand
TTITLE16=Saved
EXTD=
EXTT0=
EXTT1=
EXTT2=
EXTT3=
EXTT4=
EXTT5=
EXTT6=
EXTT7=
EXTT8=
EXTT9=
EXTT10=
EXTT11=
EXTT12=
EXTT13=
EXTT14=
EXTT15=
EXTT16=
PLAYORDER=
